# xmcd CD database generated by RipIT
#
# Track frame offsets:
# 150
# 20518
# 40185
# 54788
# 77921
# 98038
# 113991
# 134054
# 149110
# 175119
#
# Disc length: 2498 seconds
#
# Revision: 0
# Processed by: cddbd v1.5.2PL0 Copyright (c) Steve Scherf et al.
# Submitted via: RipIT 4.0.0-beta20140508 www.suwald.com/ripit/ripit.html on 2018-08-25 at 16:22
#
DISCID=8909c00a
DTITLE=Andreas Diehlmann Band - Andreas Diehlmann Band
DYEAR=2017
DGENRE=Blues
TTITLE0=Way Down South
TTITLE1=Oh Well
TTITLE2=Come On And Get It
TTITLE3=Hard Times
TTITLE4=Opposites Attract
TTITLE5=Rock Me Baby
TTITLE6=Full Grown Man
TTITLE7=Gonna Raise Hell
TTITLE8=Gone
TTITLE9=Rita
EXTD=
EXTT0=
EXTT1=
EXTT2=
EXTT3=
EXTT4=
EXTT5=
EXTT6=
EXTT7=
EXTT8=
EXTT9=
PLAYORDER=
